<svg width="141" height="35" fill="none" data-v-423bf9ae="" xmlns="http://www.w3.org/2000/svg" viewBox="0 0 339 90" class="iconLeft"><!----><!----><!----><g data-v-423bf9ae="" id="bad3c204-0b44-4b4e-ab74-b6dd28c3235e" fill="#2C4845" transform="matrix(6.460419220115205,0,0,6.460419220115205,149.5216694485478,-7.577760044175989)"><path d="M3.12 3.60L3.12 3.60L3.12 3.60Q2.66 3.81 1.88 4.32L1.88 4.32L1.88 4.32Q1.68 3.75 1.22 3.58L1.22 3.58L0.30 4.33L0.34 4.50L0.34 4.50Q0.89 3.99 0.83 7.79L0.83 7.79L0.83 7.79Q0.65 10.53 0.78 11.32L0.78 11.32L0.78 11.32Q0.92 12.10 1.98 12.58L1.98 12.58L1.98 12.58Q3.04 13.06 4.08 12.40L4.08 12.40L4.08 12.40Q5.12 11.75 5.50 11.29L5.50 11.29L5.50 11.29Q5.88 10.82 6.01 10.41L6.01 10.41L6.01 10.41Q6.15 10.01 6.20 9.32L6.20 9.32L6.20 9.32Q6.25 8.64 5.82 7.91L5.82 7.91L5.82 7.91Q5.39 7.17 4.07 6.99L4.07 6.99L4.07 6.99Q5.50 5.96 5.29 4.91L5.29 4.91L5.29 4.91Q5.09 3.86 4.34 3.62L4.34 3.62L4.34 3.62Q3.58 3.38 3.12 3.60ZM3.25 4.30L3.25 4.30L3.25 4.30Q4.05 4.44 4.24 5.36L4.24 5.36L4.24 5.36Q4.43 6.28 3.66 6.96L3.66 6.96L3.66 6.96Q2.71 6.95 1.93 7.35L1.93 7.35L1.96 4.69L1.96 4.69Q2.46 4.16 3.25 4.30ZM1.92 8.26L1.92 8.26Q1.95 7.68 2.85 7.57L2.85 7.57L2.85 7.57Q3.75 7.45 4.44 8.05L4.44 8.05L4.44 8.05Q5.13 8.65 5.08 9.92L5.08 9.92L5.08 9.92Q5.03 11.20 4.57 11.66L4.57 11.66L4.57 11.66Q4.10 12.12 3.10 11.77L3.10 11.77L3.10 11.77Q2.11 11.42 1.99 10.69L1.99 10.69L1.99 10.69Q1.87 9.96 1.92 8.26L1.92 8.26ZM9.99 6.60L9.99 6.60L9.99 6.60Q8.92 6.43 7.99 7.26L7.99 7.26L7.99 7.26Q7.06 8.09 6.80 9.20L6.80 9.20L6.80 9.20Q6.54 10.31 6.96 11.26L6.96 11.26L6.96 11.26Q7.38 12.22 8.52 12.62L8.52 12.62L8.52 12.62Q9.45 12.93 10.46 12.18L10.46 12.18L10.46 12.18Q11.46 11.43 11.57 10.84L11.57 10.84L11.37 10.68L11.37 10.68Q10.55 11.85 9.77 11.81L9.77 11.81L9.77 11.81Q8.99 11.76 8.60 11.46L8.60 11.46L8.60 11.46Q8.22 11.15 8.00 10.80L8.00 10.80L9.90 9.54L9.90 9.54Q11.34 8.65 11.20 7.70L11.20 7.70L11.20 7.70Q11.05 6.76 9.99 6.60ZM7.55 8.75L7.55 8.75L7.55 8.75Q7.56 8.12 8.07 7.58L8.07 7.58L8.07 7.58Q8.57 7.04 9.17 7.19L9.17 7.19L9.17 7.19Q9.77 7.34 10.00 8.00L10.00 8.00L10.00 8.00Q10.24 8.67 9.95 9.02L9.95 9.02L9.95 9.02Q9.65 9.37 7.83 10.40L7.83 10.40L7.83 10.40Q7.67 10.04 7.61 9.71L7.61 9.71L7.61 9.71Q7.55 9.37 7.55 8.75ZM13.14 6.46L11.92 7.35L12.04 7.52L12.04 7.52Q12.61 7.06 12.63 8.50L12.63 8.50L12.63 8.50Q12.56 11.46 12.65 11.91L12.65 11.91L12.65 11.91Q12.74 12.37 13.36 12.71L13.36 12.71L14.42 11.87L14.34 11.75L14.34 11.75Q13.80 11.96 13.70 11.08L13.70 11.08L13.70 11.08Q13.60 10.19 13.67 8.11L13.67 8.11L13.67 8.11Q14.68 6.60 15.50 8.12L15.50 8.12L16.38 7.42L16.38 7.42Q16.10 6.74 15.64 6.57L15.64 6.57L15.64 6.57Q15.18 6.39 14.75 6.58L14.75 6.58L14.75 6.58Q14.31 6.76 13.60 7.66L13.60 7.66L13.60 7.66Q13.67 6.82 13.14 6.46L13.14 6.46ZM17.88 6.39L16.53 7.22L16.62 7.33L16.62 7.33Q17.25 6.92 17.23 8.52L17.23 8.52L17.23 8.52Q17.17 11.43 17.25 11.88L17.25 11.88L17.25 11.88Q17.34 12.34 18.09 12.70L18.09 12.70L19.09 12.00L19.04 11.86L19.04 11.86Q18.48 12.18 18.36 11.16L18.36 11.16L18.36 11.16Q18.24 10.14 18.31 8.24L18.31 8.24L18.31 8.24Q19.63 6.81 20.59 7.10L20.59 7.10L20.59 7.10Q21.55 7.39 21.40 9.29L21.40 9.29L21.40 9.29Q21.37 11.34 21.42 11.83L21.42 11.83L21.42 11.83Q21.46 12.32 22.06 12.68L22.06 12.68L23.10 11.95L23.01 11.79L23.01 11.79Q22.53 12.04 22.46 11.10L22.46 11.10L22.46 11.10Q22.39 10.17 22.46 8.73L22.46 8.73L22.46 8.73Q22.51 7.85 22.24 7.26L22.24 7.26L22.24 7.26Q21.98 6.68 21.30 6.44L21.30 6.44L21.30 6.44Q20.62 6.20 19.81 6.55L19.81 6.55L19.81 6.55Q19.00 6.90 18.34 7.59L18.34 7.59L18.34 7.59Q18.40 6.75 17.88 6.39L17.88 6.39ZM26.26 6.54L26.26 6.54L26.26 6.54Q25.25 6.56 24.40 7.23L24.40 7.23L24.40 7.23Q23.56 7.90 23.98 8.74L23.98 8.74L25.09 8.07L25.09 8.07Q24.88 6.90 26.30 7.03L26.30 7.03L26.30 7.03Q27.73 7.15 27.54 8.89L27.54 8.89L27.54 8.89Q26.43 8.39 25.56 8.61L25.56 8.61L25.56 8.61Q24.68 8.82 23.94 9.71L23.94 9.71L23.94 9.71Q23.35 10.58 23.57 11.18L23.57 11.18L23.57 11.18Q23.78 11.79 24.26 12.23L24.26 12.23L24.26 12.23Q24.75 12.67 25.34 12.71L25.34 12.71L25.34 12.71Q25.94 12.76 26.35 12.48L26.35 12.48L26.35 12.48Q26.76 12.20 27.56 11.49L27.56 11.49L27.56 11.49Q27.62 12.36 28.12 12.76L28.12 12.76L29.23 11.80L29.14 11.64L29.14 11.64Q28.57 12.10 28.51 10.58L28.51 10.58L28.52 8.14L28.52 8.14Q28.49 7.23 27.88 6.88L27.88 6.88L27.88 6.88Q27.28 6.53 26.26 6.54ZM27.24 9.84L27.24 9.84L27.51 9.47L27.52 11.08L27.52 11.08Q26.65 11.95 26.03 11.90L26.03 11.90L26.03 11.90Q25.41 11.85 24.99 11.48L24.99 11.48L24.99 11.48Q24.56 11.12 24.37 10.64L24.37 10.64L24.37 10.64Q24.18 10.17 24.45 9.71L24.45 9.71L24.45 9.71Q24.71 9.26 25.50 9.19L25.50 9.19L25.50 9.19Q26.28 9.11 27.24 9.84Z"></path></g><!----><g data-v-423bf9ae="" id="fbf1045c-313e-43da-b4ca-fe41888bf39d" transform="matrix(1.3145979177910483,0,0,1.3145979177910483,16.06352538073832,-10.569635862122837)" stroke="none" fill="#2C4845"><path d="M87.942 23.023v7.751h-100v-7.751H35.09V8.168h29.061v14.855h23.791zm-9.474 11.519V76.63H29.491V50.795h-14.64V76.63H-2.804V34.542h81.272zm-23.466 5.919H42.409v15.178h12.593V40.461zm16.472 0H58.877v15.178h12.598V40.461z"></path></g><!----></svg>