<svg version="1.1" id="Layer_1" xmlns="http://www.w3.org/2000/svg" xmlns:xlink="http://www.w3.org/1999/xlink" x="0px" y="0px"
	 width="100%" viewBox="0 0 410 346" enable-background="new 0 0 410 346" xml:space="preserve">
<path fill="#FFFFFF" opacity="1.000000" stroke="none" 
	d="
M276.000000,347.000000 
	C184.000031,347.000000 92.500053,347.000000 1.000061,347.000000 
	C1.000041,231.666733 1.000041,116.333458 1.000021,1.000139 
	C137.666565,1.000093 274.333130,1.000093 410.999756,1.000046 
	C410.999847,116.333199 410.999847,231.666397 410.999939,346.999817 
	C366.166656,347.000000 321.333344,347.000000 276.000000,347.000000 
M2.182136,101.978134 
	C2.182136,111.575523 2.182136,121.172913 2.182136,130.639771 
	C134.906311,130.639771 266.968536,130.639771 398.802521,130.639771 
	C398.802521,120.353943 398.802521,110.430779 398.802521,100.044624 
	C367.377655,100.044624 336.313232,100.044624 304.928253,100.044624 
	C304.928253,81.933273 304.780518,64.295120 305.031097,46.662624 
	C305.094513,42.199078 303.731506,41.055084 299.382568,41.075207 
	C264.219421,41.237885 229.055161,41.163002 193.891251,41.179008 
	C192.463440,41.179657 191.035721,41.363949 189.256607,41.486973 
	C189.256607,61.106194 189.256607,80.372429 189.256607,100.166443 
	C186.932144,100.166443 184.983093,100.165398 183.034042,100.166595 
	C123.040421,100.203629 63.046799,100.240875 2.519385,100.126808 
	C2.438956,100.435318 2.358527,100.743835 2.182136,101.978134 
M39.000000,210.500000 
	C39.000000,244.588959 39.000000,278.677917 39.000000,312.664276 
	C62.688560,312.664276 85.751671,312.664276 109.124260,312.664276 
	C109.124260,278.548401 109.124260,244.767075 109.124260,210.787537 
	C128.491638,210.787537 147.544891,210.787537 167.118591,210.787537 
	C167.118591,244.943130 167.118591,278.843079 167.118591,312.692749 
	C232.202835,312.692749 296.765656,312.692749 361.351807,312.692749 
	C361.351807,256.998230 361.351807,201.611694 361.351807,146.293121 
	C253.757812,146.293121 146.515900,146.293121 39.000000,146.293121 
	C39.000000,167.556732 39.000000,188.528366 39.000000,210.500000 
z"/>
<path fill="#2C4845" opacity="1.000000" stroke="none" 
	d="
M39.000000,210.000000 
	C39.000000,188.528366 39.000000,167.556732 39.000000,146.293121 
	C146.515900,146.293121 253.757812,146.293121 361.351807,146.293121 
	C361.351807,201.611694 361.351807,256.998230 361.351807,312.692749 
	C296.765656,312.692749 232.202835,312.692749 167.118591,312.692749 
	C167.118591,278.843079 167.118591,244.943130 167.118591,210.787537 
	C147.544891,210.787537 128.491638,210.787537 109.124260,210.787537 
	C109.124260,244.767075 109.124260,278.548401 109.124260,312.664276 
	C85.751671,312.664276 62.688560,312.664276 39.000000,312.664276 
	C39.000000,278.677917 39.000000,244.588959 39.000000,210.000000 
M332.143463,169.619080 
	C316.220795,169.619080 300.298126,169.619080 283.696045,169.619080 
	C283.696045,189.820831 283.696045,209.627167 283.696045,229.828430 
	C299.249420,229.828430 315.030518,229.811646 330.811554,229.843994 
	C333.629364,229.849762 333.964691,228.202789 333.953339,225.919281 
	C333.862274,207.615952 333.833801,189.312332 333.897186,170.483658 
	C333.596954,170.337296 333.296753,170.190948 332.143463,169.619080 
M267.935120,229.131226 
	C268.114044,227.670013 268.445404,226.209152 268.448578,224.747559 
	C268.485077,207.929306 268.479309,191.110916 268.458221,174.292618 
	C268.456421,172.851364 268.264954,171.410339 268.161133,169.963257 
	C251.456406,169.963257 235.107635,169.963257 218.910950,169.963257 
	C218.910950,190.110031 218.910950,209.819519 218.910950,229.729614 
	C235.256912,229.729614 251.221268,229.729614 267.935120,229.131226 
z"/>
<path fill="#2C4845" opacity="1.000000" stroke="none" 
	d="
M3.053174,100.278091 
	C63.046799,100.240875 123.040421,100.203629 183.034042,100.166595 
	C184.983093,100.165398 186.932144,100.166443 189.256607,100.166443 
	C189.256607,80.372429 189.256607,61.106194 189.256607,41.486973 
	C191.035721,41.363949 192.463440,41.179657 193.891251,41.179008 
	C229.055161,41.163002 264.219421,41.237885 299.382568,41.075207 
	C303.731506,41.055084 305.094513,42.199078 305.031097,46.662624 
	C304.780518,64.295120 304.928253,81.933273 304.928253,100.044624 
	C336.313232,100.044624 367.377655,100.044624 398.802521,100.044624 
	C398.802521,110.430779 398.802521,120.353943 398.802521,130.639771 
	C266.968536,130.639771 134.906311,130.639771 2.182136,130.639771 
	C2.182136,121.172913 2.182136,111.575523 2.412372,101.447952 
	C2.871815,100.763817 3.008671,100.550598 3.053174,100.278091 
z"/>
<path fill="#617674" opacity="1.000000" stroke="none" 
	d="
M2.786279,100.202454 
	C3.008671,100.550598 2.871815,100.763817 2.460353,100.985054 
	C2.358527,100.743835 2.438956,100.435318 2.786279,100.202454 
z"/>
<path fill="#FFFFFF" opacity="1.000000" stroke="none" 
	d="
M333.786163,171.008789 
	C333.833801,189.312332 333.862274,207.615952 333.953339,225.919281 
	C333.964691,228.202789 333.629364,229.849762 330.811554,229.843994 
	C315.030518,229.811646 299.249420,229.828430 283.696045,229.828430 
	C283.696045,209.627167 283.696045,189.820831 283.696045,169.619080 
	C300.298126,169.619080 316.220795,169.619080 332.646301,170.033295 
	C333.297668,170.707031 333.510010,170.894135 333.786163,171.008789 
z"/>
<path fill="#FFFFFF" opacity="1.000000" stroke="none" 
	d="
M267.560364,229.430420 
	C251.221268,229.729614 235.256912,229.729614 218.910950,229.729614 
	C218.910950,209.819519 218.910950,190.110031 218.910950,169.963257 
	C235.107635,169.963257 251.456406,169.963257 268.161133,169.963257 
	C268.264954,171.410339 268.456421,172.851364 268.458221,174.292618 
	C268.479309,191.110916 268.485077,207.929306 268.448578,224.747559 
	C268.445404,226.209152 268.114044,227.670013 267.560364,229.430420 
z"/>
<path fill="#E5E8E8" opacity="1.000000" stroke="none" 
	d="
M333.841675,170.746216 
	C333.510010,170.894135 333.297668,170.707031 333.072845,170.246048 
	C333.296753,170.190948 333.596954,170.337296 333.841675,170.746216 
z"/>
</svg>